<svg xmlns="http://www.w3.org/2000/svg" xmlns:xlink="http://www.w3.org/1999/xlink" version="1.1" width="256" height="256" viewBox="0 0 256 256" xml:space="preserve">
<desc>Created with Fabric.js 1.7.22</desc>
<defs>
</defs>
<g transform="translate(128 128) scale(0.72 0.72)" style="">
	<g style="stroke: none; stroke-width: 0; stroke-dasharray: none; stroke-linecap: butt; stroke-linejoin: miter; stroke-miterlimit: 10; fill: none; fill-rule: nonzero; opacity: 1;" transform="translate(-175.05 -175.05) scale(3.89 3.89)" >
	<rect x="42.35" y="57.61" rx="0" ry="0" width="5.3" height="23.75" style="stroke: none; stroke-width: 1; stroke-dasharray: none; stroke-linecap: butt; stroke-linejoin: miter; stroke-miterlimit: 10; fill: rgb(255,255,255); fill-rule: nonzero; opacity: 1;" transform=" matrix(1 0 0 1 0 0) "/>
	<path d="M 31.519 47.414 c -16.207 0 -29.394 -13.185 -29.394 -29.393 c 0 -1.166 0.945 -2.111 2.111 -2.111 l 27.283 -0.001 c 0.559 0 1.096 0.222 1.493 0.618 c 0.396 0.396 0.618 0.933 0.618 1.493 v 27.283 C 33.63 46.469 32.685 47.414 31.519 47.414 z M 6.435 20.132 c 1.018 12.2 10.774 21.956 22.973 22.973 V 20.132 H 6.435 z" style="stroke: none; stroke-width: 1; stroke-dasharray: none; stroke-linecap: butt; stroke-linejoin: miter; stroke-miterlimit: 10; fill: rgb(255,255,255); fill-rule: nonzero; opacity: 1;" transform=" matrix(1 0 0 1 0 0) " stroke-linecap="round" />
	<path d="M 58.481 47.414 c -1.165 0 -2.111 -0.945 -2.111 -2.111 V 18.021 c 0 -1.166 0.945 -2.111 2.111 -2.111 h 27.283 c 1.165 0 2.111 0.945 2.111 2.111 C 87.874 34.228 74.689 47.414 58.481 47.414 z M 60.592 20.132 v 22.973 c 12.2 -1.018 21.955 -10.773 22.973 -22.973 L 60.592 20.132 z" style="stroke: none; stroke-width: 1; stroke-dasharray: none; stroke-linecap: butt; stroke-linejoin: miter; stroke-miterlimit: 10; fill: rgb(255,255,255); fill-rule: nonzero; opacity: 1;" transform=" matrix(1 0 0 1 0 0) " stroke-linecap="round" />
	<path d="M 74.927 4.068 H 45 h 0 H 15.073 c 4.896 6.245 4.651 18.711 4.382 34.612 C 19.456 50.952 30.892 60.9 45 60.9 h 0 c 14.108 0 25.544 -9.948 25.544 -22.22 C 70.275 22.779 70.031 10.313 74.927 4.068 z" style="stroke: none; stroke-width: 1; stroke-dasharray: none; stroke-linecap: butt; stroke-linejoin: miter; stroke-miterlimit: 10; fill: rgb(255,255,255); fill-rule: nonzero; opacity: 1;" transform=" matrix(1 0 0 1 0 0) " stroke-linecap="round" />
	<path d="M 74.294 8.827 H 15.706 c -2.427 0 -4.413 -1.986 -4.413 -4.413 v 0 C 11.293 1.986 13.279 0 15.706 0 h 58.587 c 2.427 0 4.413 1.986 4.413 4.413 v 0 C 78.707 6.841 76.721 8.827 74.294 8.827 z" style="stroke: none; stroke-width: 1; stroke-dasharray: none; stroke-linecap: butt; stroke-linejoin: miter; stroke-miterlimit: 10; fill: rgb(255,255,255); fill-rule: nonzero; opacity: 1;" transform=" matrix(1 0 0 1 0 0) " stroke-linecap="round" />
	<path d="M 56.333 90 H 33.667 v -1.377 c 0 -6.259 5.074 -11.333 11.333 -11.333 h 0 c 6.259 0 11.333 5.074 11.333 11.333 V 90 z" style="stroke: none; stroke-width: 1; stroke-dasharray: none; stroke-linecap: butt; stroke-linejoin: miter; stroke-miterlimit: 10; fill: rgb(255,255,255); fill-rule: nonzero; opacity: 1;" transform=" matrix(1 0 0 1 0 0) " stroke-linecap="round" />
</g>
</g>
</svg>