<svg xmlns="http://www.w3.org/2000/svg" xmlns:xlink="http://www.w3.org/1999/xlink" version="1.1" width="256" height="256" viewBox="0 0 256 256" xml:space="preserve">
<desc>Created with Fabric.js 1.7.22</desc>
<defs>
</defs>
<g transform="translate(128 128) scale(0.72 0.72)" style="">
	<g style="stroke: none; stroke-width: 0; stroke-dasharray: none; stroke-linecap: butt; stroke-linejoin: miter; stroke-miterlimit: 10; fill: none; fill-rule: nonzero; opacity: 1;" transform="translate(-175.05 -175.05) scale(3.89 3.89)" >
	<rect x="2.34" y="32.74" rx="0" ry="0" width="86.37" height="47.98" style="stroke: none; stroke-width: 1; stroke-dasharray: none; stroke-linecap: butt; stroke-linejoin: miter; stroke-miterlimit: 10; fill: rgb(228,231,231); fill-rule: nonzero; opacity: 1;" transform=" matrix(1 0 0 1 0 0) "/>
	<rect x="21.15" y="8.89" rx="0" ry="0" width="7.34" height="13.76" style="stroke: none; stroke-width: 1; stroke-dasharray: none; stroke-linecap: butt; stroke-linejoin: miter; stroke-miterlimit: 10; fill: rgb(191,57,44); fill-rule: nonzero; opacity: 1;" transform=" matrix(1 0 0 1 0 0) "/>
	<rect x="62.15" y="8.89" rx="0" ry="0" width="7.34" height="13.76" style="stroke: none; stroke-width: 1; stroke-dasharray: none; stroke-linecap: butt; stroke-linejoin: miter; stroke-miterlimit: 10; fill: rgb(191,57,44); fill-rule: nonzero; opacity: 1;" transform=" matrix(1 0 0 1 0 0) "/>
	<path d="M 71.33 14.891 v -8 H 58.67 v 8 H 31.33 v -8 H 18.67 v 8 H 0 v 0 v 20.348 v 47.871 h 90 V 35.238 V 14.891 v 0 H 71.33 z M 62.67 10.891 h 4.66 v 10.174 h -4.66 V 10.891 z M 22.67 10.891 h 4.66 v 10.174 h -4.66 V 10.891 z M 86 79.109 H 4 V 35.238 h 82 V 79.109 z" style="stroke: none; stroke-width: 1; stroke-dasharray: none; stroke-linecap: butt; stroke-linejoin: miter; stroke-miterlimit: 10; fill: rgb(226,87,76); fill-rule: nonzero; opacity: 1;" transform=" matrix(1 0 0 1 0 0) " stroke-linecap="round" />
	<path d="M 30.71 52.694 l -6.381 -1.144 c 0.53 -2.033 1.55 -3.591 3.058 -4.674 c 1.509 -1.083 3.644 -1.624 6.406 -1.624 c 3.171 0 5.463 0.591 6.878 1.773 c 1.414 1.183 2.121 2.669 2.121 4.458 c 0 1.05 -0.287 2 -0.862 2.851 c -0.574 0.851 -1.441 1.597 -2.602 2.237 c 0.938 0.232 1.657 0.504 2.154 0.813 c 0.807 0.497 1.434 1.152 1.881 1.964 c 0.448 0.812 0.672 1.782 0.672 2.909 c 0 1.414 -0.371 2.771 -1.11 4.068 c -0.741 1.298 -1.807 2.298 -3.199 3 c -1.392 0.701 -3.221 1.052 -5.485 1.052 c -2.21 0 -3.953 -0.26 -5.229 -0.778 c -1.275 -0.52 -2.325 -1.279 -3.148 -2.279 s -1.456 -2.257 -1.897 -3.771 l 6.745 -0.896 c 0.265 1.359 0.677 2.302 1.234 2.826 c 0.558 0.525 1.269 0.787 2.13 0.787 c 0.906 0 1.66 -0.331 2.263 -0.994 c 0.602 -0.663 0.903 -1.547 0.903 -2.651 c 0 -1.127 -0.29 -2 -0.87 -2.618 c -0.58 -0.619 -1.368 -0.929 -2.362 -0.929 c -0.53 0 -1.26 0.132 -2.188 0.397 l 0.348 -4.822 c 0.376 0.055 0.669 0.082 0.879 0.082 c 0.884 0 1.621 -0.281 2.212 -0.845 c 0.592 -0.563 0.887 -1.231 0.887 -2.005 c 0 -0.74 -0.221 -1.332 -0.662 -1.773 c -0.442 -0.442 -1.05 -0.663 -1.823 -0.663 c -0.796 0 -1.442 0.24 -1.939 0.721 S 30.887 51.49 30.71 52.694 z" style="stroke: none; stroke-width: 1; stroke-dasharray: none; stroke-linecap: butt; stroke-linejoin: miter; stroke-miterlimit: 10; fill: rgb(55,79,91); fill-rule: nonzero; opacity: 1;" transform=" matrix(1 0 0 1 0 0) " stroke-linecap="round" />
	<path d="M 46.393 57.717 c 0 -4.619 0.831 -7.851 2.494 -9.696 c 1.663 -1.845 4.195 -2.768 7.599 -2.768 c 1.636 0 2.978 0.202 4.027 0.605 c 1.05 0.404 1.906 0.928 2.568 1.575 c 0.663 0.646 1.186 1.325 1.566 2.038 c 0.382 0.713 0.688 1.545 0.92 2.494 c 0.453 1.813 0.68 3.702 0.68 5.668 c 0 4.409 -0.746 7.636 -2.237 9.68 c -1.492 2.044 -4.061 3.065 -7.706 3.065 c -2.045 0 -3.696 -0.326 -4.956 -0.978 s -2.293 -1.607 -3.099 -2.867 c -0.586 -0.895 -1.042 -2.118 -1.368 -3.671 C 46.556 61.311 46.393 59.595 46.393 57.717 z M 53.088 57.732 c 0 3.094 0.273 5.207 0.82 6.34 s 1.34 1.698 2.379 1.698 c 0.685 0 1.278 -0.24 1.781 -0.721 s 0.872 -1.24 1.11 -2.278 c 0.237 -1.039 0.356 -2.658 0.356 -4.856 c 0 -3.226 -0.273 -5.395 -0.821 -6.505 c -0.546 -1.11 -1.366 -1.666 -2.46 -1.666 c -1.116 0 -1.923 0.566 -2.42 1.699 S 53.088 54.672 53.088 57.732 z" style="stroke: none; stroke-width: 1; stroke-dasharray: none; stroke-linecap: butt; stroke-linejoin: miter; stroke-miterlimit: 10; fill: rgb(55,79,91); fill-rule: nonzero; opacity: 1;" transform=" matrix(1 0 0 1 0 0) " stroke-linecap="round" />
</g>
</g>
</svg>